<?xml version="1.0" encoding="UTF-8"?>
<svg version="1.1" xmlns="http://www.w3.org/2000/svg" width="512" height="512">
<path d="M0 0 C1.01545898 0.19867676 2.03091797 0.39735352 3.07714844 0.60205078 C52.9758035 10.58327711 96.53871388 34.88580573 133 70 C133.7940625 70.7528125 134.588125 71.505625 135.40625 72.28125 C140.75597303 77.46114055 145.38660506 83.16405541 150 89 C151.19109375 90.48306641 151.19109375 90.48306641 152.40625 91.99609375 C175.32205725 121.03970389 191.22147176 154.85685587 199.6875 190.8125 C199.97306763 191.99936401 199.97306763 191.99936401 200.2644043 193.21020508 C204.22851721 210.89052902 205.555362 228.61292655 205.4375 246.6875 C205.43293793 248.18546112 205.43293793 248.18546112 205.42828369 249.71368408 C205.35621635 265.78341917 204.43972751 281.25213186 201 297 C200.78037598 298.02625488 200.56075195 299.05250977 200.33447266 300.10986328 C191.83138831 338.85817193 174.61772522 375.56726438 149 406 C148.57138672 406.51739746 148.14277344 407.03479492 147.70117188 407.56787109 C137.18164284 420.2564129 126.03816903 431.86528878 113 442 C111.52660156 443.18142578 111.52660156 443.18142578 110.0234375 444.38671875 C70.29759115 476.0035908 18.37047678 496.93437939 -32.79296875 497.203125 C-33.69337387 497.21018463 -34.59377899 497.21724426 -35.52146912 497.22451782 C-72.98691069 497.45161655 -72.98691069 497.45161655 -90 494 C-91.01545898 493.80132324 -92.03091797 493.60264648 -93.07714844 493.39794922 C-142.9758035 483.41672289 -186.53871388 459.11419427 -223 424 C-223.7940625 423.2471875 -224.588125 422.494375 -225.40625 421.71875 C-230.75597303 416.53885945 -235.38660506 410.83594459 -240 405 C-240.7940625 404.01128906 -241.588125 403.02257812 -242.40625 402.00390625 C-266.9776499 370.86198961 -283.32468106 334.48759715 -291.25 295.6875 C-291.47671387 294.57942993 -291.47671387 294.57942993 -291.70800781 293.44897461 C-292.18439803 290.97158418 -292.60252786 288.49133778 -293 286 C-293.17805176 284.88423584 -293.35610352 283.76847168 -293.53955078 282.61889648 C-295.19998488 270.98027732 -295.3987437 259.43103747 -295.375 247.6875 C-295.37445618 246.6738739 -295.37391235 245.6602478 -295.37335205 244.61590576 C-295.33347417 228.41878779 -294.46747801 212.87491635 -291 197 C-290.78037598 195.97374512 -290.56075195 194.94749023 -290.33447266 193.89013672 C-279.82149525 145.98280374 -255.85138923 104.15003587 -222 69 C-221.2471875 68.2059375 -220.494375 67.411875 -219.71875 66.59375 C-214.53885945 61.24402697 -208.83594459 56.61339494 -203 52 C-202.01128906 51.2059375 -201.02257812 50.411875 -200.00390625 49.59375 C-167.66655102 24.07913264 -130.33332447 7.86607287 -90 0 C-89.17274414 -0.16661133 -88.34548828 -0.33322266 -87.49316406 -0.50488281 C-59.91781494 -5.80488028 -27.50199116 -5.57960557 0 0 Z " fill="#0AA3DD" transform="translate(301,9)"/>
<path d="M0 0 C21.60480526 18.50583852 35.3768522 40.58587866 43.43798828 67.70654297 C43.80730469 68.92664063 43.80730469 68.92664063 44.18408203 70.17138672 C45.42882672 74.64388315 45.43798828 77.85759868 45.43798828 82.70654297 C21.34798828 82.70654297 -2.74201172 82.70654297 -27.56201172 82.70654297 C-29.21201172 78.74654297 -30.86201172 74.78654297 -32.56201172 70.70654297 C-41.36113804 55.77306638 -54.10606622 45.16556296 -70.87451172 40.62451172 C-88.22909191 36.71218571 -105.68748017 39.37114434 -120.71826172 48.74560547 C-136.19027371 59.41449286 -145.27128811 74.89449769 -149.1628418 93.20532227 C-152.52499908 114.27278486 -148.80035555 136.90067241 -136.33056641 154.43847656 C-126.77802856 166.82315551 -112.98446454 175.0969511 -97.56201172 177.70654297 C-80.09075512 179.62626774 -63.07927732 176.54379684 -48.90966797 165.67138672 C-37.73203826 156.14098665 -31.56000091 144.69950514 -27.56201172 130.70654297 C-3.14201172 130.70654297 21.27798828 130.70654297 46.43798828 130.70654297 C45.70736168 138.01280902 44.87486081 143.84950329 42.87548828 150.70654297 C42.61155273 151.61227051 42.34761719 152.51799805 42.07568359 153.45117188 C31.83192348 187.33847772 9.45087019 214.42829527 -21.43701172 231.63305664 C-28.8266171 235.56101782 -36.56816346 238.28777507 -44.56201172 240.70654297 C-45.22120605 240.90618652 -45.88040039 241.10583008 -46.55957031 241.31152344 C-68.38684144 247.7827059 -91.13779684 248.63927044 -113.56201172 244.70654297 C-114.2371582 244.58827148 -114.91230469 244.47 -115.60791016 244.34814453 C-139.31320134 239.95579213 -161.12898986 229.08726626 -179.56201172 213.70654297 C-180.50689453 212.92666016 -181.45177734 212.14677734 -182.42529297 211.34326172 C-198.02415675 197.86248977 -208.33952576 180.39968825 -216.56201172 161.70654297 C-217.33931641 160.00498047 -217.33931641 160.00498047 -218.13232422 158.26904297 C-219.68343889 154.40397035 -220.70945785 150.63338643 -221.62451172 146.58154297 C-221.785 145.91123047 -221.94548828 145.24091797 -222.11083984 144.55029297 C-224.89165892 132.53358083 -225.941738 120.75544191 -225.87451172 108.45654297 C-225.87202423 107.72776947 -225.86953674 106.99899597 -225.86697388 106.24813843 C-225.81006065 95.46345155 -225.46516676 85.15741402 -222.56201172 74.70654297 C-222.34158203 73.87719238 -222.12115234 73.0478418 -221.89404297 72.19335938 C-216.97184402 54.07693271 -209.4414879 37.36303956 -197.56201172 22.70654297 C-196.75376953 21.67400391 -195.94552734 20.64146484 -195.11279297 19.57763672 C-172.61388156 -8.58574588 -138.87551299 -24.2868465 -103.57373047 -28.79345703 C-67.48185827 -32.76867196 -28.23438154 -23.38008025 0 0 Z " fill="#FEFEFE" transform="translate(345.56201171875,147.29345703125)"/>
</svg>
