<?xml version="1.0" encoding="UTF-8"?>
<svg version="1.1" xmlns="http://www.w3.org/2000/svg" width="512" height="512">
<path d="M0 0 C0.81262299 0.29916824 1.62524597 0.59833649 2.4624939 0.90657043 C5.09025983 1.87767418 7.71118427 2.86586015 10.33203125 3.85546875 C12.15655449 4.53570517 13.9813459 5.21522268 15.80639648 5.89404297 C20.38919069 7.60292521 24.96568695 9.3280071 29.54016113 11.059021 C32.01054779 11.99234894 34.48284045 12.9203862 36.95605469 13.84619141 C40.55240766 15.19312504 44.14482718 16.54995341 47.73355103 17.91708374 C49.03245014 18.41129892 50.33221571 18.90324385 51.63290405 19.39273071 C70.44217865 26.49146988 70.44217865 26.49146988 75.1104393 36.28823853 C76.73765483 40.62299792 76.84408645 44.60962608 76.79150391 49.19921875 C76.8002655 50.15997314 76.8090271 51.12072754 76.8180542 52.1105957 C76.83988296 55.25519304 76.82555398 58.3983596 76.80859375 61.54296875 C76.81196662 63.74674751 76.81682315 65.95052445 76.8230896 68.15429688 C76.83043859 72.76059781 76.81981877 77.36641213 76.79638672 81.97265625 C76.76790075 87.85704285 76.78431526 93.74028896 76.81424904 99.62463379 C76.83237516 104.17163582 76.82653955 108.71837048 76.81361008 113.26538086 C76.81029077 115.43416481 76.81431081 117.60297357 76.82600784 119.77172852 C76.83880404 122.81070636 76.81921664 125.84787461 76.79150391 128.88671875 C76.80162506 129.77012939 76.81174622 130.65354004 76.82217407 131.5637207 C76.71122265 138.1795954 74.94849527 143.58092502 71.14453125 149.04296875 C63.94697892 155.06311192 54.46622135 157.84118247 45.7578125 161.02734375 C44.28642086 161.57368437 42.81533137 162.12083936 41.3445282 162.66876221 C38.28161317 163.80753816 35.21642837 164.93987075 32.14916992 166.06689453 C28.23233356 167.50613028 24.31969292 168.95636715 20.40847492 170.4107933 C16.65127747 171.807478 12.89215788 173.19895294 9.1328125 174.58984375 C8.07069266 174.98344715 8.07069266 174.98344715 6.98711586 175.38500214 C4.9694146 176.13158295 2.95039661 176.87447995 0.9309082 177.61621094 C-0.78590401 178.24858673 -0.78590401 178.24858673 -2.53739929 178.89373779 C-16.31161898 183.66451184 -25.64394668 180.4202534 -38.79296875 175.46875 C-40.32385895 174.90087544 -41.85503314 174.33376596 -43.38647461 173.76737976 C-46.58313883 172.5821054 -49.77653916 171.38853521 -52.96777344 170.1887207 C-57.03023189 168.66197182 -61.09965099 167.1548986 -65.17167664 165.65388203 C-68.33172203 164.48679048 -71.48803998 163.30987686 -74.64334106 162.13002586 C-76.1411937 161.57110311 -77.64009431 161.01497953 -79.1401062 160.46187782 C-102.05026825 151.99419915 -102.05026825 151.99419915 -106.85103989 141.78201771 C-108.43884713 137.4521125 -108.55484064 133.46031142 -108.50244141 128.88671875 C-108.511203 127.92596436 -108.5199646 126.96520996 -108.5289917 125.9753418 C-108.55082046 122.83074446 -108.53649148 119.6875779 -108.51953125 116.54296875 C-108.52290412 114.33918999 -108.52776065 112.13541305 -108.5340271 109.93164062 C-108.54137609 105.32533969 -108.53075627 100.71952537 -108.50732422 96.11328125 C-108.47883825 90.22889465 -108.49525276 84.34564854 -108.52518654 78.46130371 C-108.54331266 73.91430168 -108.53747705 69.36756702 -108.52454758 64.82055664 C-108.52122827 62.65177269 -108.52524831 60.48296393 -108.53694534 58.31420898 C-108.54974154 55.27523114 -108.53015414 52.23806289 -108.50244141 49.19921875 C-108.51256256 48.31580811 -108.52268372 47.43239746 -108.53311157 46.5222168 C-108.42211822 39.90384155 -106.65406861 34.51036732 -102.85546875 29.04296875 C-95.49201033 22.84278291 -85.64191703 20.0589218 -76.70703125 16.8046875 C-75.16118493 16.23355405 -73.61564768 15.66158347 -72.07040405 15.08882141 C-68.85366294 13.89875248 -65.63465776 12.71512934 -62.41357422 11.53686523 C-58.28805662 10.02775663 -54.1665668 8.50800966 -50.04647255 6.98416424 C-46.10118551 5.52526426 -42.15428956 4.07074414 -38.20703125 2.6171875 C-37.08309401 2.2029783 -37.08309401 2.2029783 -35.93645096 1.78040123 C-33.81738148 1.0005614 -31.6972308 0.22374515 -29.57666016 -0.55200195 C-28.37216217 -0.99357132 -27.16766418 -1.43514069 -25.92666626 -1.89009094 C-16.76599617 -5.0725265 -8.91266206 -3.39937726 0 0 Z " fill="#B4ACB7" transform="translate(271.85546875,166.95703125)"/>
<path d="M0 0 C3.25614633 2.81212637 4.78041879 5.69114646 5.19241142 10.02316856 C5.28182089 12.54674705 5.30453445 15.06344405 5.30639648 17.58862305 C5.31472 18.54864731 5.32304352 19.50867157 5.33161926 20.49778748 C5.35569787 23.6691393 5.36448985 26.84028522 5.37109375 30.01171875 C5.38006333 32.22264161 5.38918524 34.43356385 5.39845276 36.64448547 C5.41494066 41.28050205 5.42264224 45.91644644 5.42553711 50.55249023 C5.4309135 56.47615395 5.46856438 62.39913337 5.51428127 68.32260418 C5.54411398 72.89100076 5.55126206 77.459234 5.55226326 82.0277195 C5.55645498 84.21048928 5.56884688 86.39326003 5.58978081 88.57593346 C5.61681668 91.63925917 5.61183246 94.70101784 5.59936523 97.7644043 C5.61419952 98.65567017 5.62903381 99.54693604 5.64431763 100.46520996 C5.56777316 107.11281464 3.83053973 112.51543643 0 118 C-7.17556232 123.99110929 -16.60940392 126.79099277 -25.28125 129.984375 C-26.7454008 130.53086409 -28.20930416 131.07801652 -29.67297363 131.62579346 C-32.72319037 132.76484787 -35.77585415 133.89698479 -38.83056641 135.02392578 C-42.72150627 136.45982059 -46.60640431 137.91130119 -50.48966217 139.36782455 C-53.50577857 140.49743332 -56.52465406 141.6195103 -59.54441833 142.73932648 C-60.97714328 143.27144167 -62.40910093 143.80562812 -63.84022522 144.34203339 C-65.8484787 145.09327444 -67.86018498 145.83445196 -69.87304688 146.57324219 C-71.57986633 147.20561798 -71.57986633 147.20561798 -73.32116699 147.85076904 C-77.78721381 149.24591779 -82.41197061 150.08239412 -87 151 C-87 111.73 -87 72.46 -87 32 C-80.4 29.69 -73.8 27.38 -67 25 C-63.50993632 23.70677533 -60.03147594 22.40768889 -56.5625 21.0625 C-55.70599854 20.73386963 -54.84949707 20.40523926 -53.96704102 20.06665039 C-51.31028427 19.04720567 -48.65494655 18.02414882 -46 17 C-34.5495416 12.58297193 -23.08684788 8.2555702 -11.48217773 4.25756836 C-7.61454984 2.92482905 -3.77992621 1.56988871 0 0 Z " fill="#A59DA5" transform="translate(343,198)"/>
<path d="M0 0 C11.33320711 7.48419337 18.01235359 18.04377799 21.04296875 31.03515625 C23.25508952 44.09254167 20.27224107 56.3846369 13.10546875 67.4296875 C5.66888203 77.57211661 -5.107628 84.1857801 -17.546875 86.109375 C-28.48765989 87.25555246 -37.81206662 86.21523038 -47.359375 80.56640625 C-49.403756 79.49495268 -49.403756 79.49495268 -51.32910156 79.76220703 C-54.5556665 81.0584532 -56.29678983 83.23377242 -58.65625 85.76953125 C-59.65419891 86.81516849 -60.65292151 87.86006777 -61.65234375 88.90429688 C-63.2124569 90.55102845 -64.76551922 92.20301054 -66.30517578 93.86889648 C-67.79992342 95.47908434 -69.3192058 97.06259639 -70.84375 98.64453125 C-71.7399707 99.60174072 -72.63619141 100.5589502 -73.55957031 101.54516602 C-77.59776698 104.40772317 -79.64771168 104.16049013 -84.515625 103.640625 C-87.015625 102.140625 -87.015625 102.140625 -88.515625 99.640625 C-89.07357062 94.65669622 -89.28766487 92.70104371 -86.29663086 88.59277344 C-85.29390436 87.62475329 -84.27049919 86.67782548 -83.23046875 85.75 C-82.42785362 84.98215179 -82.42785362 84.98215179 -81.60902405 84.1987915 C-79.9083864 82.57563953 -78.18373509 80.98173582 -76.453125 79.390625 C-74.72191988 77.78268265 -72.99728039 76.16929341 -71.28651428 74.53961182 C-70.22406454 73.52897594 -69.1492823 72.53111742 -68.06150818 71.54779053 C-66.42050236 70.05269726 -66.42050236 70.05269726 -64.515625 67.640625 C-64.47988799 65.46160849 -64.47988799 65.46160849 -65.515625 63.640625 C-65.8971875 62.73570312 -66.27875 61.83078125 -66.671875 60.8984375 C-67.1153125 59.86460938 -67.55875 58.83078125 -68.015625 57.765625 C-72.8468644 45.19597598 -72.47255336 32.64114315 -67.515625 20.11328125 C-61.25353701 7.7413088 -51.10987333 -0.26127811 -38.203125 -4.734375 C-24.92829482 -8.4625588 -12.0968047 -6.39512605 0 0 Z " fill="#61B3FD" transform="translate(429.515625,67.359375)"/>
<path d="M0 0 C2.38273176 1.7347524 3.97531036 3.13821635 5.890625 5.28515625 C6.4025238 5.820233 6.91442261 6.35530975 7.4418335 6.90660095 C9.06498547 8.6072386 10.65888918 10.33188991 12.25 12.0625 C13.85794235 13.79370512 15.47133159 15.51834461 17.10101318 17.22911072 C18.11164906 18.29156046 19.10950758 19.3663427 20.09283447 20.45411682 C21.58792774 22.09512264 21.58792774 22.09512264 24 24 C26.1774019 24.03539135 26.1774019 24.03539135 28 23 C28.91652344 22.6184375 29.83304687 22.236875 30.77734375 21.84375 C31.82019531 21.4003125 32.86304688 20.956875 33.9375 20.5 C45.4908753 16.04148269 57.42471277 15.7665159 69.06640625 20.15625 C81.49205652 25.86919265 90.0957895 34.42248363 95.25 47.06640625 C99.78837856 60.16151939 98.88123619 72.43351791 93.375 85.0625 C87.87071427 95.23708878 78.14700498 104.07643194 67.1875 107.875 C54.03254207 111.77459353 41.55913804 110.63919007 29.20703125 104.64453125 C18.13642936 98.39742912 10.18037539 88.8331397 6.53125 76.5390625 C3.87778724 63.85707136 4.49931249 52.43356991 11.07421875 41.19140625 C12.23169086 38.4515672 12.10357247 37.74420868 11 35 C8.73231015 32.44789928 8.73231015 32.44789928 5.87109375 29.859375 C4.82545651 28.86142609 3.78055723 27.86270349 2.73632812 26.86328125 C1.08959655 25.3031681 -0.56238554 23.75010578 -2.22827148 22.21044922 C-3.83845934 20.71570158 -5.42197139 19.1964192 -7.00390625 17.671875 C-7.96111572 16.7756543 -8.9183252 15.87943359 -9.90454102 14.95605469 C-12.76709817 10.91785802 -12.51986513 8.86791332 -12 4 C-9.18976311 -0.68372815 -5.06722673 -0.92805058 0 0 Z " fill="#61B3FC" transform="translate(353,341)"/>
<path d="M0 0 C2.5 1.5 2.5 1.5 4 4 C4.55794562 8.98392878 4.77203987 10.93958129 1.78100586 15.04785156 C0.77827936 16.01587171 -0.24512581 16.96279952 -1.28515625 17.890625 C-1.820233 18.4025238 -2.35530975 18.91442261 -2.90660095 19.4418335 C-4.6072386 21.06498547 -6.33188991 22.65888918 -8.0625 24.25 C-9.79370512 25.85794235 -11.51834461 27.47133159 -13.22911072 29.10101318 C-14.29156046 30.11164906 -15.3663427 31.10950758 -16.45411682 32.09283447 C-18.09512264 33.58792774 -18.09512264 33.58792774 -20 36 C-20.03573701 38.17901651 -20.03573701 38.17901651 -19 40 C-18.6184375 40.90492188 -18.236875 41.80984375 -17.84375 42.7421875 C-17.4003125 43.77601563 -16.956875 44.80984375 -16.5 45.875 C-11.6687606 58.44464902 -12.04307164 70.99948185 -17 83.52734375 C-23.26208799 95.8993162 -33.40575167 103.90190311 -46.3125 108.375 C-58.7473415 111.86727629 -71.56552733 110.51270653 -82.96875 104.34375 C-94.68684759 96.59177775 -102.40828807 86.23075168 -105.55078125 72.61328125 C-107.79380552 59.56473137 -104.78209206 47.2470895 -97.62109375 36.2109375 C-90.18450703 26.06850839 -79.407997 19.4548449 -66.96875 17.53125 C-56.02796511 16.38507254 -46.70355838 17.42539462 -37.15625 23.07421875 C-35.111869 24.14567232 -35.111869 24.14567232 -33.18652344 23.87841797 C-29.9599585 22.5821718 -28.21883517 20.40685258 -25.859375 17.87109375 C-24.86142609 16.82545651 -23.86270349 15.78055723 -22.86328125 14.73632812 C-21.3031681 13.08959655 -19.75010578 11.43761446 -18.21044922 9.77172852 C-16.71570158 8.16154066 -15.1964192 6.57802861 -13.671875 4.99609375 C-12.7756543 4.03888428 -11.87943359 3.0816748 -10.95605469 2.09545898 C-6.91785802 -0.76709817 -4.86791332 -0.51986513 0 0 Z " fill="#61B3FD" transform="translate(167,341)"/>
<path d="M0 0 C9.13603579 6.69868348 15.8720961 16.44280765 18.2109375 27.62109375 C19.93746314 39.73554866 19.37123256 49.76954698 13.13671875 60.4296875 C11.97924664 63.16952655 12.10736503 63.87688507 13.2109375 66.62109375 C15.47862735 69.17319447 15.47862735 69.17319447 18.33984375 71.76171875 C19.38548099 72.75966766 20.43038027 73.75839026 21.47460938 74.7578125 C23.12134095 76.31792565 24.77332304 77.87098797 26.43920898 79.41064453 C28.04939684 80.90539217 29.63290889 82.42467455 31.21484375 83.94921875 C32.65065796 85.2935498 32.65065796 85.2935498 34.11547852 86.66503906 C36.97803567 90.70323573 36.73080263 92.75318043 36.2109375 97.62109375 C34.7109375 100.12109375 34.7109375 100.12109375 32.2109375 101.62109375 C27.22700872 102.17903937 25.27135621 102.39313362 21.16308594 99.40209961 C20.19506579 98.39937311 19.24813798 97.37596794 18.3203125 96.3359375 C17.55246429 95.53332237 17.55246429 95.53332237 16.769104 94.7144928 C15.14595203 93.01385515 13.55204832 91.28920384 11.9609375 89.55859375 C10.35299515 87.82738863 8.73960591 86.10274914 7.10992432 84.39198303 C6.09928844 83.32953329 5.10142992 82.25475105 4.11810303 81.16697693 C2.62300976 79.52597111 2.62300976 79.52597111 0.2109375 77.62109375 C-1.9664644 77.5857024 -1.9664644 77.5857024 -3.7890625 78.62109375 C-4.70558594 79.00265625 -5.62210937 79.38421875 -6.56640625 79.77734375 C-7.60925781 80.22078125 -8.65210937 80.66421875 -9.7265625 81.12109375 C-21.2799378 85.57961106 -33.21377527 85.85457785 -44.85546875 81.46484375 C-57.28111902 75.7519011 -65.884852 67.19861012 -71.0390625 54.5546875 C-75.57744106 41.45957436 -74.67029869 29.18757584 -69.1640625 16.55859375 C-63.65977677 6.38400497 -53.93606748 -2.45533819 -42.9765625 -6.25390625 C-27.90385029 -10.72198979 -13.21384356 -8.57403118 0 0 Z " fill="#61B3FD" transform="translate(134.7890625,69.37890625)"/>
<path d="M0 0 C0.81262299 0.29916824 1.62524597 0.59833649 2.4624939 0.90657043 C5.09025983 1.87767418 7.71118427 2.86586015 10.33203125 3.85546875 C12.15655449 4.53570517 13.9813459 5.21522268 15.80639648 5.89404297 C20.38919069 7.60292521 24.96568695 9.3280071 29.54016113 11.059021 C32.01054779 11.99234894 34.48284045 12.9203862 36.95605469 13.84619141 C40.55240766 15.19312504 44.14482718 16.54995341 47.73355103 17.91708374 C49.03245014 18.41129892 50.33221571 18.90324385 51.63290405 19.39273071 C58.58241919 22.01552167 65.15691901 24.58741551 71.14453125 29.04296875 C71.14453125 30.03296875 71.14453125 31.02296875 71.14453125 32.04296875 C70.02095215 32.45619385 68.89737305 32.86941895 67.73974609 33.29516602 C56.31653299 37.49867121 44.90145698 41.72370164 33.49316406 45.9675293 C30.778295 46.97720945 28.06297958 47.98568285 25.34765625 48.99414062 C24.4531073 49.32693024 23.55855835 49.65971985 22.63690186 50.00259399 C20.84287855 50.66969717 19.04832661 51.33538049 17.25323486 51.99960327 C12.61222569 53.72314867 7.99437054 55.49041357 3.39746094 57.32861328 C2.45800629 57.6999086 1.51855164 58.07120392 0.55062866 58.45375061 C-1.2327139 59.16065984 -3.01187207 59.87825903 -4.78573608 60.60862732 C-6.00095444 61.08768272 -6.00095444 61.08768272 -7.24072266 61.57641602 C-7.94097565 61.8602565 -8.64122864 62.14409698 -9.36270142 62.4365387 C-15.88939752 64.02432614 -21.01935732 62.98051793 -27.19848633 60.62792969 C-27.8842424 60.37100845 -28.56999847 60.11408722 -29.27653503 59.84938049 C-31.52259197 59.00440204 -33.76109078 58.14106299 -36 57.27734375 C-37.57602861 56.68040774 -39.15250915 56.08466368 -40.72941589 55.49005127 C-44.87077313 53.92492172 -49.00600508 52.34420753 -53.14007568 50.75994873 C-57.31845618 49.16161756 -61.50212745 47.57727252 -65.68554688 45.9921875 C-70.40439278 44.20356879 -75.12270257 42.41365596 -79.83686829 40.61273193 C-87.48661046 37.69102612 -95.14608016 34.80460621 -102.85546875 32.04296875 C-102.6730957 30.22257996 -102.6730957 30.22257996 -101.85546875 28.04296875 C-93.68870323 22.43267955 -83.4356273 19.43793616 -74.16796875 16.0234375 C-72.69234997 15.47442784 -71.21693045 14.92488233 -69.74169922 14.37483215 C-66.677444 13.23383482 -63.6116302 12.09717747 -60.54443359 10.96411133 C-56.61711358 9.51323858 -52.69276185 8.0545345 -48.76939392 6.59301281 C-45.00744565 5.19205337 -41.24398794 3.79516999 -37.48046875 2.3984375 C-36.76742584 2.13337088 -36.05438293 1.86830425 -35.31973267 1.59520531 C-33.30382966 0.84660213 -31.28686532 0.10093792 -29.26953125 -0.64379883 C-28.12436035 -1.0676033 -26.97918945 -1.49140778 -25.79931641 -1.92805481 C-16.71269596 -5.10414252 -8.83338822 -3.36914143 0 0 Z " fill="#C3BEC6" transform="translate(271.85546875,166.95703125)"/>
<path d="M0 0 C6.00154588 4.92248005 11.29523733 10.3630222 12.75 18.25 C13.71576903 29.69615147 12.90698291 38.34720648 5.5 47.5 C-1.2420016 54.71638551 -8.40353991 57.77851128 -18.125 58.5625 C-26.76639397 58.27501723 -34.80157957 54.97133421 -41.25 49.25 C-45.29991377 44.50863753 -48.15072748 40.41992386 -49.25 34.25 C-50.08049866 34.26110306 -50.91099731 34.27220612 -51.7666626 34.28364563 C-59.59431457 34.38384145 -67.42175113 34.45996148 -75.249897 34.50906086 C-79.27446096 34.53515231 -83.29849497 34.57054057 -87.32275391 34.62719727 C-91.2066544 34.68153552 -95.09004529 34.71142394 -98.97429657 34.72438622 C-100.45593031 34.73362306 -101.93753624 34.75166111 -103.41895294 34.77865028 C-105.4950835 34.814969 -107.56911056 34.81994481 -109.64550781 34.81762695 C-110.82687317 34.82873001 -112.00823853 34.83983307 -113.22540283 34.85127258 C-116.25 34.25 -116.25 34.25 -118.63153076 31.90202332 C-120.62336189 28.63820929 -120.87712692 27.01276152 -120.25 23.25 C-118.63153076 20.59797668 -118.63153076 20.59797668 -116.25 18.25 C-113.22540283 17.64872742 -113.22540283 17.64872742 -109.64550781 17.68237305 C-108.99143448 17.68164291 -108.33736115 17.68091278 -107.66346741 17.68016052 C-105.50916566 17.68363426 -103.35704718 17.72247755 -101.203125 17.76171875 C-99.7066974 17.77104783 -98.2102545 17.7781635 -96.71380615 17.78315735 C-92.78100188 17.80222026 -88.84912545 17.85131327 -84.91668701 17.90667725 C-80.90161694 17.95788599 -76.88639648 17.98067475 -72.87109375 18.00585938 C-64.99697071 18.05943419 -57.12360087 18.14473668 -49.25 18.25 C-48.94835937 17.145354 -48.64671875 16.04070801 -48.3359375 14.90258789 C-45.88232507 6.64977864 -40.13693494 1.44732755 -32.73046875 -2.59765625 C-21.88377239 -7.63667267 -9.81790126 -7.00743334 0 0 Z " fill="#FBEE55" transform="translate(499.25,229.75)"/>
<path d="M0 0 C5.25057498 4.65855081 8.88281243 9.96870628 10.11328125 16.875 C11.35902924 16.85834541 11.35902924 16.85834541 12.62994385 16.84135437 C20.45759582 16.74115855 28.28503238 16.66503852 36.11317825 16.61593914 C40.13774221 16.58984769 44.16177622 16.55445943 48.18603516 16.49780273 C52.06993565 16.44346448 55.95332654 16.41357606 59.83757782 16.40061378 C61.31921156 16.39137694 62.80081749 16.37333889 64.28223419 16.34634972 C66.35836475 16.310031 68.43239181 16.30505519 70.50878906 16.30737305 C71.69015442 16.29626999 72.87151978 16.28516693 74.08868408 16.27372742 C77.11328125 16.875 77.11328125 16.875 79.49481201 19.22297668 C81.48664314 22.48679071 81.74040817 24.11223848 81.11328125 27.875 C79.49481201 30.52702332 79.49481201 30.52702332 77.11328125 32.875 C74.08868408 33.47627258 74.08868408 33.47627258 70.50878906 33.44262695 C69.85471573 33.44335709 69.2006424 33.44408722 68.52674866 33.44483948 C66.37244691 33.44136574 64.22032843 33.40252245 62.06640625 33.36328125 C60.56997865 33.35395217 59.07353575 33.3468365 57.5770874 33.34184265 C53.64428313 33.32277974 49.7124067 33.27368673 45.77996826 33.21832275 C41.76489819 33.16711401 37.74967773 33.14432525 33.734375 33.11914062 C25.86025196 33.06556581 17.98688212 32.98026332 10.11328125 32.875 C9.81164063 33.979646 9.51 35.08429199 9.19921875 36.22241211 C6.74560632 44.47522136 1.00021619 49.67767245 -6.40625 53.72265625 C-15.05254301 57.73943804 -23.47625611 57.85404756 -32.43359375 54.9140625 C-40.52333761 51.48751494 -46.61056065 45.04795652 -50.76171875 37.4375 C-53.23397262 29.85789531 -53.31204323 19.28016843 -50.32421875 11.875 C-45.94889088 3.83053753 -39.54114351 -2.64742665 -30.8828125 -5.87109375 C-19.83558929 -9.00582441 -9.28048342 -6.5935939 0 0 Z " fill="#FBEE55" transform="translate(51.88671875,231.125)"/>
<path d="M0 0 C2.65202332 1.61846924 2.65202332 1.61846924 5 4 C5.60127258 7.02459717 5.60127258 7.02459717 5.56762695 10.60449219 C5.56835709 11.25856552 5.56908722 11.91263885 5.56983948 12.58653259 C5.56636574 14.74083434 5.52752245 16.89295282 5.48828125 19.046875 C5.47895217 20.5433026 5.4718365 22.0397455 5.46684265 23.53619385 C5.44777974 27.46899812 5.39868673 31.40087455 5.34332275 35.33331299 C5.29211401 39.34838306 5.26932525 43.36360352 5.24414062 47.37890625 C5.19056581 55.25302929 5.10526332 63.12639913 5 71 C6.104646 71.30164063 7.20929199 71.60328125 8.34741211 71.9140625 C16.60022136 74.36767493 21.80267245 80.11306506 25.84765625 87.51953125 C29.86443804 96.16582426 29.97904756 104.58953736 27.0390625 113.546875 C23.61251494 121.63661886 17.17295652 127.7238419 9.5625 131.875 C1.98289531 134.34725387 -8.59483157 134.42532448 -16 131.4375 C-24.04446247 127.06217213 -30.52242665 120.65442476 -33.74609375 111.99609375 C-36.37748432 102.72271044 -35.14444484 94.08317833 -30.74609375 85.57421875 C-25.72364191 77.4315516 -20.14578233 73.5184616 -11 71 C-11.01110306 70.16950134 -11.02220612 69.33900269 -11.03364563 68.4833374 C-11.13384145 60.65568543 -11.20996148 52.82824887 -11.25906086 45.000103 C-11.28515231 40.97553904 -11.32054057 36.95150503 -11.37719727 32.92724609 C-11.43153552 29.0433456 -11.46142394 25.15995471 -11.47438622 21.27570343 C-11.48362306 19.79406969 -11.50166111 18.31246376 -11.52865028 16.83104706 C-11.564969 14.7549165 -11.56994481 12.68088944 -11.56762695 10.60449219 C-11.57873001 9.42312683 -11.58983307 8.24176147 -11.60127258 7.02459717 C-11 4 -11 4 -8.65202332 1.61846924 C-5.38820929 -0.37336189 -3.76276152 -0.62712692 0 0 Z " fill="#FBEE55" transform="translate(259,379)"/>
<path d="M0 0 C7.42750503 5.35376731 12.8734468 11.88775628 14.71875 21.0078125 C16.1159841 30.9048874 13.65650201 39.74925467 7.875 47.88671875 C3.21644919 53.13729373 -2.09370628 56.76953118 -9 58 C-8.98334541 59.24574799 -8.98334541 59.24574799 -8.96635437 60.5166626 C-8.86615855 68.34431457 -8.79003852 76.17175113 -8.74093914 83.999897 C-8.71484769 88.02446096 -8.67945943 92.04849497 -8.62280273 96.07275391 C-8.56846448 99.9566544 -8.53857606 103.84004529 -8.52561378 107.72429657 C-8.51637694 109.20593031 -8.49833889 110.68753624 -8.47134972 112.16895294 C-8.435031 114.2450835 -8.43005519 116.31911056 -8.43237305 118.39550781 C-8.41571846 120.16755585 -8.41571846 120.16755585 -8.39872742 121.97540283 C-9 125 -9 125 -11.34797668 127.38153076 C-14.61179071 129.37336189 -16.23723848 129.62712692 -20 129 C-22.65202332 127.38153076 -22.65202332 127.38153076 -25 125 C-25.60127258 121.97540283 -25.60127258 121.97540283 -25.56762695 118.39550781 C-25.56835709 117.74143448 -25.56908722 117.08736115 -25.56983948 116.41346741 C-25.56636574 114.25916566 -25.52752245 112.10704718 -25.48828125 109.953125 C-25.47895217 108.4566974 -25.4718365 106.9602545 -25.46684265 105.46380615 C-25.44777974 101.53100188 -25.39868673 97.59912545 -25.34332275 93.66668701 C-25.29211401 89.65161694 -25.26932525 85.63639648 -25.24414062 81.62109375 C-25.19056581 73.74697071 -25.10526332 65.87360087 -25 58 C-26.104646 57.69835938 -27.20929199 57.39671875 -28.34741211 57.0859375 C-36.60022136 54.63232507 -41.80267245 48.88693494 -45.84765625 41.48046875 C-49.86443804 32.83417574 -49.97904756 24.41046264 -47.0390625 15.453125 C-43.61251494 7.36338114 -37.17295652 1.2761581 -29.5625 -2.875 C-20.32747924 -5.88720404 -8.11600025 -5.50264817 0 0 Z " fill="#FBEE55" transform="translate(273,4)"/>
<path d="M0 0 C3.45703125 0.76953125 3.45703125 0.76953125 5.95703125 2.26953125 C8.02551573 5.71700538 8.16749089 8.89036759 7.45703125 12.76953125 C5.72227885 15.15226301 4.3188149 16.74484161 2.171875 18.66015625 C1.63679825 19.17205505 1.1017215 19.68395386 0.5504303 20.21136475 C-1.15020735 21.83451672 -2.87485866 23.42842043 -4.60546875 25.01953125 C-6.33667387 26.6274736 -8.06131336 28.24086284 -9.77207947 29.87054443 C-10.83452921 30.88118031 -11.90931145 31.87903883 -12.99708557 32.86236572 C-14.63809139 34.35745899 -14.63809139 34.35745899 -16.54296875 36.76953125 C-16.57870576 38.94854776 -16.57870576 38.94854776 -15.54296875 40.76953125 C-15.16140625 41.67445313 -14.77984375 42.579375 -14.38671875 43.51171875 C-13.94328125 44.54554688 -13.49984375 45.579375 -13.04296875 46.64453125 C-8.21172935 59.21418027 -8.58604039 71.7690131 -13.54296875 84.296875 C-19.80505674 96.66884745 -29.94872042 104.67143436 -42.85546875 109.14453125 C-55.30821138 112.641835 -68.0682082 111.25728948 -79.5 105.12890625 C-85.9430556 100.8417488 -91.72675976 95.534629 -95.54296875 88.76953125 C-92.26665959 89.83433173 -89.10659779 90.95674999 -85.9375 92.31640625 C-81.18916195 94.09580528 -76.76221352 94.26759098 -71.73046875 94.20703125 C-70.8489917 94.19945801 -69.96751465 94.19188477 -69.05932617 94.18408203 C-58.23734594 93.91081481 -50.04022816 90.40902482 -41.54296875 83.76953125 C-40.92679688 83.29128906 -40.310625 82.81304687 -39.67578125 82.3203125 C-31.06776421 74.72612858 -27.11264265 63.63289888 -26.3046875 52.48046875 C-26.11299784 43.86452306 -27.57654448 36.83486953 -30.54296875 28.76953125 C-31.03796875 27.28453125 -31.03796875 27.28453125 -31.54296875 25.76953125 C-30.82149658 25.37983154 -30.10002441 24.99013184 -29.35668945 24.58862305 C-26.24863922 22.57924497 -24.04563 20.36959094 -21.5234375 17.6640625 C-20.57448284 16.67034924 -19.62458364 15.67753727 -18.67382812 14.68554688 C-17.19632956 13.13384167 -15.72600701 11.57720672 -14.27124023 10.00415039 C-5.07696838 0.1003627 -5.07696838 0.1003627 0 0 Z " fill="#29A2FB" transform="translate(163.54296875,340.23046875)"/>
<path d="M0 0 C9.4862083 4.74310415 16.33665387 13.82309301 19.75 23.6875 C23.87896805 36.81857864 22.64451332 49.42989331 16.64453125 61.79296875 C10.37492364 72.90345302 0.80412937 80.82025751 -11.53125 84.46875 C-23.98786259 87.14928689 -35.78055169 86.47150692 -46.84375 79.92578125 C-48.888131 78.85432768 -48.888131 78.85432768 -50.81347656 79.12158203 C-54.0400415 80.4178282 -55.78116483 82.59314742 -58.140625 85.12890625 C-59.13857391 86.17454349 -60.13729651 87.21944277 -61.13671875 88.26367188 C-62.6968319 89.91040345 -64.24989422 91.56238554 -65.78955078 93.22827148 C-67.28429842 94.83845934 -68.8035808 96.42197139 -70.328125 98.00390625 C-71.2243457 98.96111572 -72.12056641 99.9183252 -73.04394531 100.90454102 C-77.08214198 103.76709817 -79.13208668 103.51986513 -84 103 C-86.5 101.5 -86.5 101.5 -88 99 C-88.55078919 94.03136245 -88.75468065 92.05709202 -85.81274414 87.9362793 C-84.82345913 86.96162748 -83.8128717 86.00825941 -82.78515625 85.07421875 C-82.25482285 84.55994827 -81.72448944 84.0456778 -81.17808533 83.51582336 C-79.49085112 81.8862965 -77.7786354 80.28651114 -76.0625 78.6875 C-74.35554022 77.06565978 -72.65434382 75.43816874 -70.95762634 73.80561829 C-69.90299192 72.79426434 -68.8414749 71.79002781 -67.7724762 70.79386902 C-65.38154207 68.53219354 -64.05938454 67.17815362 -63 64 C-62.21625 64.268125 -61.4325 64.53625 -60.625 64.8125 C-59.42875 65.204375 -58.2325 65.59625 -57 66 C-56.29617188 66.26425781 -55.59234375 66.52851563 -54.8671875 66.80078125 C-42.48249146 71.11294439 -29.75928501 69.78397593 -18 64.4375 C-6.87570818 58.57814018 0.00210402 49.54917234 4.1328125 37.76953125 C5.17942086 33.22008498 5.42333778 28.96744467 5.4375 24.3125 C5.44136719 23.43416504 5.44523437 22.55583008 5.44921875 21.65087891 C5.31519263 14.06025349 3.48515241 8.74625931 0 2 C0 1.34 0 0.68 0 0 Z " fill="#29A2FB" transform="translate(429,68)"/>
<path d="M0 0 C10.74205017 6.05961804 17.36049031 16.00709765 20.77734375 27.6484375 C23.34034197 39.07304393 21.72772407 49.59989911 17.15625 60.2578125 C16.58390625 61.61519531 16.58390625 61.61519531 16 63 C15.70488525 63.60602051 15.40977051 64.21204102 15.10571289 64.83642578 C14.74341902 67.2679059 14.74341902 67.2679059 17.08959961 69.53027344 C18.09948785 70.48510611 19.12134724 71.42737398 20.15234375 72.359375 C21.24973091 73.40324445 22.34672369 74.44752862 23.44335938 75.4921875 C25.18585003 77.12312149 26.93420108 78.746967 28.69116211 80.36230469 C30.38330186 81.92707395 32.04950784 83.51617653 33.71484375 85.109375 C34.24295151 85.5805072 34.77105927 86.0516394 35.31517029 86.53704834 C38.18367618 89.30626956 39.33895745 91.30140102 39.42407227 95.21191406 C39 99 39 99 37.5 101.5 C34.05252587 103.56848448 30.87916366 103.71045964 27 103 C24.61726824 101.2652476 23.02468964 99.86178365 21.109375 97.71484375 C20.34152679 96.91222862 20.34152679 96.91222862 19.5581665 96.09339905 C17.93501453 94.3927614 16.34111082 92.66811009 14.75 90.9375 C13.14205765 89.20629488 11.52866841 87.48165539 9.89898682 85.77088928 C8.88835094 84.70843954 7.89049242 83.6336573 6.90716553 82.54588318 C5.41207226 80.90487736 5.41207226 80.90487736 3 79 C0.8225981 78.96460865 0.8225981 78.96460865 -1 80 C-1.91652344 80.3815625 -2.83304688 80.763125 -3.77734375 81.15625 C-4.82019531 81.5996875 -5.86304688 82.043125 -6.9375 82.5 C-18.4908753 86.95851731 -30.42471277 87.2334841 -42.06640625 82.84375 C-51.10705871 78.68712818 -59.14109599 72.83295969 -64 64 C-61.80229607 64.47776172 -59.86260733 65.06076514 -57.80078125 65.97265625 C-46.39499291 70.96828411 -33.56147745 70.46148074 -21.93359375 66.32421875 C-10.13499998 60.99835552 -1.67572946 52.0483216 3 40 C4.62450433 34.46528526 5.38626403 29.44607211 5.375 23.6875 C5.37556396 22.95055908 5.37612793 22.21361816 5.37670898 21.4543457 C5.24837001 15.03248768 3.58969306 9.85541042 1 4 C0.63646951 2.6745814 0.29195662 1.34300045 0 0 Z " fill="#29A2FB" transform="translate(132,68)"/>
<path d="M0 0 C11.18517021 7.669831 18.84012886 17.25010108 21.71875 30.78515625 C23.37574925 43.83402537 21.24411616 56.91335776 13.09375 67.46875 C3.87815319 78.24191247 -6.58521658 85.05393779 -20.875 86.23828125 C-34.03756036 86.55089206 -45.9713284 82.86003698 -56.06640625 74.234375 C-59.31106456 71.11841921 -61.9234501 68.0309498 -64 64 C-63.21625 64.268125 -62.4325 64.53625 -61.625 64.8125 C-60.42875 65.204375 -59.2325 65.59625 -58 66 C-57.34257812 66.26425781 -56.68515625 66.52851563 -56.0078125 66.80078125 C-45.10495821 70.78088896 -31.53084429 70.63870982 -20.74609375 66.390625 C-8.31568865 60.09585371 -0.37599829 50.89808819 4.08984375 37.8046875 C5.12102403 33.49408838 5.34335556 29.59891051 5.3125 25.1875 C5.30976074 24.39504883 5.30702148 23.60259766 5.30419922 22.78613281 C5.19702635 16.7721337 4.25105051 11.60017445 2 6 C1.4121875 4.205625 1.4121875 4.205625 0.8125 2.375 C0.4103125 1.199375 0.4103125 1.199375 0 0 Z " fill="#29A2FB" transform="translate(429,365)"/>
<path d="M0 0 C2.65202332 1.61846924 2.65202332 1.61846924 5 4 C5.60127258 7.02459717 5.60127258 7.02459717 5.56762695 10.60449219 C5.56835709 11.25856552 5.56908722 11.91263885 5.56983948 12.58653259 C5.56636574 14.74083434 5.52752245 16.89295282 5.48828125 19.046875 C5.47895217 20.5433026 5.4718365 22.0397455 5.46684265 23.53619385 C5.44777974 27.46899812 5.39868673 31.40087455 5.34332275 35.33331299 C5.29211401 39.34838306 5.26932525 43.36360352 5.24414062 47.37890625 C5.19056549 55.25307678 5.10263707 63.12631597 5 71 C-0.28 71 -5.56 71 -11 71 C-11.11297316 62.33339453 -11.20469895 53.66727822 -11.25906086 45.000103 C-11.28515231 40.97553904 -11.32054057 36.95150503 -11.37719727 32.92724609 C-11.43153552 29.0433456 -11.46142394 25.15995471 -11.47438622 21.27570343 C-11.48362306 19.79406969 -11.50166111 18.31246376 -11.52865028 16.83104706 C-11.564969 14.7549165 -11.56994481 12.68088944 -11.56762695 10.60449219 C-11.57873001 9.42312683 -11.58983307 8.24176147 -11.60127258 7.02459717 C-11 4 -11 4 -8.65202332 1.61846924 C-5.38820929 -0.37336189 -3.76276152 -0.62712692 0 0 Z " fill="#756E77" transform="translate(259,379)"/>
<path d="M0 0 C1.18136536 0.01110306 2.36273071 0.02220612 3.57989502 0.03364563 C4.23396835 0.0329155 4.88804169 0.03218536 5.56193542 0.03143311 C7.71623717 0.03490684 9.86835565 0.07375013 12.02227783 0.11299133 C13.51870543 0.12232041 15.01514833 0.12943608 16.51159668 0.13442993 C20.44440095 0.15349285 24.37627738 0.20258585 28.30871582 0.25794983 C32.32378589 0.30915858 36.33900636 0.33194734 40.35430908 0.35713196 C48.22847961 0.41070709 56.1017188 0.49863552 63.97540283 0.60127258 C63.97540283 5.88127258 63.97540283 11.16127258 63.97540283 16.60127258 C55.30879736 16.71424574 46.64268106 16.80597153 37.97550583 16.86033344 C33.95094187 16.8864249 29.92690786 16.92181315 25.90264893 16.97846985 C22.01874843 17.0328081 18.13535754 17.06269652 14.25110626 17.0756588 C12.76947252 17.08489565 11.2878666 17.10293369 9.80644989 17.12992287 C7.73031933 17.16624158 5.65629227 17.17121739 3.57989502 17.16889954 C2.39852966 17.18000259 1.21716431 17.19110565 0 17.20254517 C-3.02459717 16.60127258 -3.02459717 16.60127258 -5.40612793 14.2532959 C-7.39795906 10.98948187 -7.65172409 9.3640341 -7.02459717 5.60127258 C-4.95890372 2.21642778 -3.95755197 0.78673865 0 0 Z " fill="#756E77" transform="translate(386.02459716796875,247.3987274169922)"/>
<path d="M0 0 C8.66660547 -0.11297316 17.33272178 -0.20469895 25.999897 -0.25906086 C30.02446096 -0.28515231 34.04849497 -0.32054057 38.07275391 -0.37719727 C41.9566544 -0.43153552 45.84004529 -0.46142394 49.72429657 -0.47438622 C51.20593031 -0.48362306 52.68753624 -0.50166111 54.16895294 -0.52865028 C56.2450835 -0.564969 58.31911056 -0.56994481 60.39550781 -0.56762695 C61.57687317 -0.57873001 62.75823853 -0.58983307 63.97540283 -0.60127258 C67 0 67 0 69.38153076 2.34797668 C71.37336189 5.61179071 71.62712692 7.23723848 71 11 C69.38153076 13.65202332 69.38153076 13.65202332 67 16 C63.97540283 16.60127258 63.97540283 16.60127258 60.39550781 16.56762695 C59.74143448 16.56835709 59.08736115 16.56908722 58.41346741 16.56983948 C56.25916566 16.56636574 54.10704718 16.52752245 51.953125 16.48828125 C50.4566974 16.47895217 48.9602545 16.4718365 47.46380615 16.46684265 C43.53100188 16.44777974 39.59912545 16.39868673 35.66668701 16.34332275 C31.65161694 16.29211401 27.63639648 16.26932525 23.62109375 16.24414062 C15.74692322 16.19056549 7.87368403 16.10263707 0 16 C0 10.72 0 5.44 0 0 Z " fill="#756E77" transform="translate(62,248)"/>
<path d="M0 0 C5.28 0 10.56 0 16 0 C16.11297316 8.66660547 16.20469895 17.33272178 16.25906086 25.999897 C16.28515231 30.02446096 16.32054057 34.04849497 16.37719727 38.07275391 C16.43153552 41.9566544 16.46142394 45.84004529 16.47438622 49.72429657 C16.48362306 51.20593031 16.50166111 52.68753624 16.52865028 54.16895294 C16.564969 56.2450835 16.56994481 58.31911056 16.56762695 60.39550781 C16.57873001 61.57687317 16.58983307 62.75823853 16.60127258 63.97540283 C16 67 16 67 13.65202332 69.38153076 C10.38820929 71.37336189 8.76276152 71.62712692 5 71 C2.34797668 69.38153076 2.34797668 69.38153076 0 67 C-0.60127258 63.97540283 -0.60127258 63.97540283 -0.56762695 60.39550781 C-0.56835709 59.74143448 -0.56908722 59.08736115 -0.56983948 58.41346741 C-0.56636574 56.25916566 -0.52752245 54.10704718 -0.48828125 51.953125 C-0.47895217 50.4566974 -0.4718365 48.9602545 -0.46684265 47.46380615 C-0.44777974 43.53100188 -0.39868673 39.59912545 -0.34332275 35.66668701 C-0.29211401 31.65161694 -0.26932525 27.63639648 -0.24414062 23.62109375 C-0.19056549 15.74692322 -0.10263707 7.87368403 0 0 Z " fill="#756E77" transform="translate(248,62)"/>
<path d="M0 0 C2.48936142 1.78353638 4.21581581 3.26842726 6.25 5.46875 C6.79358154 6.02365112 7.33716309 6.57855225 7.8972168 7.15026855 C9.61793903 8.91554143 11.30866489 10.70659741 13 12.5 C14.16609098 13.70624518 15.33404283 14.91069438 16.50390625 16.11328125 C19.3578979 19.05516757 22.18532181 22.02049831 25 25 C23.90777974 28.27666077 23.17281146 28.91609231 20.5625 31 C18.11225368 32.96428932 16.78619422 34.32070868 15 37 C9.28831905 34.62433023 5.20791084 29.73344259 0.87158203 25.46191406 C-0.207799 24.40560923 -1.29606547 23.35830685 -2.39306641 22.3203125 C-3.98531545 20.81362713 -5.54915042 19.28193315 -7.109375 17.7421875 C-8.04749023 16.8332373 -8.98560547 15.92428711 -9.95214844 14.98779297 C-12.73675876 10.92507705 -12.50992284 8.84800722 -12 4 C-9.191071 -0.68154834 -5.06461002 -0.94486334 0 0 Z " fill="#746E78" transform="translate(353,341)"/>
<path d="M0 0 C2.5 1.5 2.5 1.5 4 4 C4.58015002 9.06695013 4.72300212 10.97672192 1.73681641 15.203125 C0.71243994 16.23963303 -0.33408163 17.25458922 -1.3984375 18.25 C-1.94859528 18.79358154 -2.49875305 19.33716309 -3.06558228 19.8972168 C-4.22494139 21.03582138 -5.39374928 22.16487602 -6.57128906 23.28466797 C-8.38013647 25.00488479 -10.16046512 26.75089861 -11.9375 28.50390625 C-13.06877371 29.6083492 -14.2015358 30.71127012 -15.3359375 31.8125 C-15.87245941 32.33424805 -16.40898132 32.85599609 -16.96176147 33.39355469 C-20.76323456 37 -20.76323456 37 -23 37 C-24.62109375 35.3203125 -24.62109375 35.3203125 -26.4375 33.125 C-28.58400884 30.53806278 -30.16776562 28.88815626 -33 27 C-30.62433023 21.28831905 -25.73344259 17.20791084 -21.46191406 12.87158203 C-20.40560923 11.792201 -19.35830685 10.70393453 -18.3203125 9.60693359 C-16.81362713 8.01468455 -15.28193315 6.45084958 -13.7421875 4.890625 C-12.8332373 3.95250977 -11.92428711 3.01439453 -10.98779297 2.04785156 C-6.92507705 -0.73675876 -4.84800722 -0.50992284 0 0 Z " fill="#746E78" transform="translate(167,341)"/>
<path d="M0 0 C1.62109375 1.6796875 1.62109375 1.6796875 3.4375 3.875 C5.58400884 6.46193722 7.16776562 8.11184374 10 10 C7.62433023 15.71168095 2.73344259 19.79208916 -1.53808594 24.12841797 C-2.59439077 25.207799 -3.64169315 26.29606547 -4.6796875 27.39306641 C-6.18637287 28.98531545 -7.71806685 30.54915042 -9.2578125 32.109375 C-10.1667627 33.04749023 -11.07571289 33.98560547 -12.01220703 34.95214844 C-16.07492295 37.73675876 -18.15199278 37.50992284 -23 37 C-25.5 35.5 -25.5 35.5 -27 33 C-27.58015002 27.93304987 -27.72300212 26.02327808 -24.73681641 21.796875 C-23.71243994 20.76036697 -22.66591837 19.74541078 -21.6015625 18.75 C-21.05140472 18.20641846 -20.50124695 17.66283691 -19.93441772 17.1027832 C-18.77505861 15.96417862 -17.60625072 14.83512398 -16.42871094 13.71533203 C-14.61986353 11.99511521 -12.83953488 10.24910139 -11.0625 8.49609375 C-9.93122629 7.3916508 -8.7984642 6.28872988 -7.6640625 5.1875 C-7.12754059 4.66575195 -6.59101868 4.14400391 -6.03823853 3.60644531 C-2.23676544 0 -2.23676544 0 0 0 Z " fill="#746E78" transform="translate(368,134)"/>
<path d="M0 0 C5.71168095 2.37566977 9.79208916 7.26655741 14.12841797 11.53808594 C15.207799 12.59439077 16.29606547 13.64169315 17.39306641 14.6796875 C18.98531545 16.18637287 20.54915042 17.71806685 22.109375 19.2578125 C23.04749023 20.1667627 23.98560547 21.07571289 24.95214844 22.01220703 C27.73675876 26.07492295 27.50992284 28.15199278 27 33 C25.5 35.5 25.5 35.5 23 37 C17.93304987 37.58015002 16.02327808 37.72300212 11.796875 34.73681641 C10.76036697 33.71243994 9.74541078 32.66591837 8.75 31.6015625 C8.20641846 31.05140472 7.66283691 30.50124695 7.1027832 29.93441772 C5.96417862 28.77505861 4.83512398 27.60625072 3.71533203 26.42871094 C1.99511521 24.61986353 0.24910139 22.83953488 -1.50390625 21.0625 C-2.6083492 19.93122629 -3.71127012 18.7984642 -4.8125 17.6640625 C-5.33424805 17.12754059 -5.85599609 16.59101868 -6.39355469 16.03823853 C-10 12.23676544 -10 12.23676544 -10 10 C-8.3203125 8.37890625 -8.3203125 8.37890625 -6.125 6.5625 C-3.53806278 4.41599116 -1.88815626 2.83223438 0 0 Z " fill="#746E78" transform="translate(144,134)"/>
</svg>
