<?xml version="1.0" encoding="UTF-8"?>
<svg version="1.1" xmlns="http://www.w3.org/2000/svg" width="1062" height="938">
<path d="M0 0 C2.2776477 -0.00961134 4.55435386 -0.04065861 6.83178711 -0.07226562 C43.47912734 -0.33707682 76.92066953 15.07808112 102.93920898 40.42773438 C113.81439418 51.31411955 129.3429586 69.57679216 130.62670898 85.30273438 C130.54420898 85.94210937 130.46170898 86.58148438 130.37670898 87.24023438 C126.05990678 89.55611262 121.92455983 91.07267067 117.19726562 92.34082031 C116.50537643 92.52818253 115.81348724 92.71554474 115.10063171 92.90858459 C112.83118339 93.52090626 110.55926948 94.12335748 108.28686523 94.72460938 C106.69790144 95.14851151 105.10898928 95.57260722 103.52012634 95.99688721 C100.19694108 96.88236233 96.87236549 97.76238462 93.546875 98.63916016 C89.2953822 99.76101546 85.04901432 100.90109823 80.80365849 102.04592514 C77.5263009 102.92666866 74.24580747 103.79524171 70.96432304 104.66046906 C69.39756818 105.0756104 67.83194492 105.49504806 66.26753426 105.91893768 C64.0766823 106.51112549 61.88197816 107.08613497 59.68554688 107.65722656 C58.44011612 107.98793152 57.19468536 108.31863647 55.91151428 108.65936279 C52.05502449 109.29309652 49.17585942 109.11866532 45.37670898 108.24023438 C42.85717773 105.98242187 42.85717773 105.98242187 40.56420898 103.11523438 C28.64901938 89.26494631 12.00948276 82.60416381 -6.01782227 80.92382812 C-30.16110847 80.06846599 -50.96865923 91.8020643 -68.21704102 107.84960938 C-85.30942698 124.83100582 -93.59909865 147.1164482 -93.99829102 171.05273438 C-93.94615902 189.3529951 -87.39673032 206.90940862 -74.62329102 220.24023438 C-63.40146327 230.99930633 -48.130275 237.27104788 -32.62329102 238.24023438 C-31.83954102 238.29308594 -31.05579102 238.3459375 -30.24829102 238.40039062 C-9.58027645 239.10777803 10.4939788 230.81229169 25.73217773 216.96289062 C30.5976915 211.86623606 34.93410981 206.29676799 39.01489258 200.56030273 C39.45900482 199.93659286 39.90311707 199.312883 40.36068726 198.67027283 C40.69597443 198.19836014 41.0312616 197.72644745 41.37670898 197.24023438 C40.33323303 197.23880936 39.28975708 197.23738434 38.21466064 197.23591614 C28.38530835 197.21925335 18.55637044 197.17650189 8.7272377 197.10814381 C3.67381087 197.07383925 -1.37931254 197.04875844 -6.43286133 197.04467773 C-11.30903819 197.04040221 -16.18453018 197.01200167 -21.06049347 196.9668026 C-22.92159284 196.95380367 -24.78277407 196.94952837 -26.64391327 196.95408058 C-29.24944693 196.95896971 -31.85296583 196.93297151 -34.45825195 196.8996582 C-35.22933289 196.90828384 -36.00041382 196.91690948 -36.79486084 196.92579651 C-40.60770125 196.84396341 -42.2901611 196.5497901 -45.1260376 193.91459656 C-46.80498818 190.91569077 -46.98404798 189.07011705 -46.35327148 185.70361328 C-44.68128814 180.06136847 -42.14896444 174.75887956 -39.68579102 169.42773438 C-39.09651179 168.13492352 -38.5074018 166.84203552 -37.91845703 165.54907227 C-34.46402618 158.01008579 -30.88739643 150.53579831 -27.06079102 143.17773438 C-26.66835205 142.41807373 -26.27591309 141.65841309 -25.87158203 140.87573242 C-21.17374417 132.08954443 -21.17374417 132.08954443 -16.85038376 130.64984989 C-14.19835107 130.16207778 -11.71496882 130.11747259 -9.01715088 130.11997986 C-7.87574142 130.11860519 -6.73433197 130.11723053 -5.55833435 130.11581421 C-4.31036575 130.11940948 -3.06239716 130.12300476 -1.77661133 130.12670898 C-0.4592952 130.12656296 0.85802094 130.12641693 2.21525574 130.12626648 C5.82442155 130.12597958 9.43355412 130.13185904 13.04271221 130.13884044 C16.81568419 130.14509176 20.58865694 130.14567918 24.3616333 130.14686584 C31.50490804 130.14997391 38.64816748 130.15818023 45.79143548 130.16821533 C53.92438227 130.17939276 62.05732979 130.18489103 70.19028234 130.18991077 C86.91910018 130.20036327 103.64790263 130.21795257 120.37670898 130.24023438 C120.57192642 129.499104 120.76714386 128.75797363 120.96827698 127.99438477 C121.23011276 127.0146167 121.49194855 126.03484863 121.76171875 125.02539062 C122.01881119 124.05738525 122.27590363 123.08937988 122.54078674 122.09204102 C123.75589951 117.94659961 125.43646522 114.12245377 127.31420898 110.24023438 C127.70261963 109.43408691 128.09103027 108.62793945 128.49121094 107.79736328 C136.4274569 91.74432526 146.59668009 77.67008859 158.37670898 64.24023438 C159.14942139 63.35585693 159.14942139 63.35585693 159.93774414 62.45361328 C165.37304701 56.27365076 170.95039257 50.39955057 177.37670898 45.24023438 C178.31901367 44.47195313 179.26131836 43.70367187 180.23217773 42.91210938 C206.62206413 21.76489331 237.40457379 11.17276725 270.37670898 5.24023438 C271.07860352 5.10746094 271.78049805 4.9746875 272.50366211 4.83789062 C310.40316683 -2.13844013 352.19194935 5.06418943 384.28198242 26.6640625 C392.24296815 32.25008689 399.42469284 38.44919111 406.37670898 45.24023438 C407.23651367 46.03816406 408.09631836 46.83609375 408.98217773 47.65820312 C432.53370616 70.04128363 444.26948753 102.46316392 445.50317383 134.52709961 C446.57697619 184.24004545 431.86519454 225.61968736 397.56030273 261.91186523 C361.6195277 299.34527867 312.62562942 318.91792013 261.06054688 320.5234375 C219.89600683 321.10920114 180.72373409 304.65050237 151.32983398 276.21679688 C136.40125726 261.35581397 125.86555498 243.21511514 119.37670898 223.24023438 C117.05513826 226.16807516 115.13323117 229.26243893 113.21899414 232.4675293 C89.09888767 272.54676759 50.84224605 302.86940567 5.30834961 314.39892578 C-9.58253666 318.02946051 -24.14831015 319.63280941 -39.43579102 319.55273438 C-40.18096985 319.55057922 -40.92614868 319.54842407 -41.69390869 319.54620361 C-52.90628692 319.49426527 -63.72835154 319.07144326 -74.62329102 316.24023438 C-75.80737549 315.94221924 -75.80737549 315.94221924 -77.01538086 315.63818359 C-93.42029276 311.40455564 -108.72296761 305.02271762 -122.62329102 295.24023438 C-124.04834961 294.2425 -124.04834961 294.2425 -125.50219727 293.22460938 C-156.54913141 270.718618 -175.68282921 239.53910146 -181.74047852 201.70507812 C-182.83696066 193.62198788 -182.97818672 185.63224912 -182.93579102 177.49023438 C-182.93363586 176.74255798 -182.93148071 175.99488159 -182.92926025 175.22454834 C-182.87739699 163.9984008 -182.47436907 153.1464973 -179.62329102 142.24023438 C-179.41929687 141.44552734 -179.21530273 140.65082031 -179.00512695 139.83203125 C-166.59521512 92.75746032 -134.61536791 50.29152915 -92.60327148 25.53540039 C-63.93263045 9.24139983 -33.04898664 0.08387181 0 0 Z M224.25170898 110.36523438 C206.78397244 130.35208981 199.85839836 155.07734502 201.37670898 181.24023438 C203.16903477 196.98075888 212.10618119 210.60556147 223.37670898 221.24023438 C224.1565918 221.98917969 224.93647461 222.738125 225.73999023 223.50976562 C239.90593716 235.96151393 259.72425234 240.60479363 278.20336914 239.44287109 C297.07047395 237.68374989 313.78484446 228.94083162 328.37670898 217.24023438 C329.35381836 216.4590625 330.33092773 215.67789063 331.33764648 214.87304688 C347.8459735 200.76929411 358.49657236 180.11840908 360.65161133 158.47998047 C361.83559578 139.31402494 358.35255298 120.1788472 345.31567383 105.30053711 C343.07359301 102.86939722 340.74188804 100.5522235 338.37670898 98.24023438 C337.8159668 97.64726562 337.25522461 97.05429687 336.67749023 96.44335938 C328.48178936 88.44125774 315.40513171 83.40486557 304.37670898 81.24023438 C303.22170898 81.01335937 302.06670898 80.78648437 300.87670898 80.55273438 C272.05002204 77.97892304 244.11928193 89.76521634 224.25170898 110.36523438 Z " fill="#FBDE05" transform="translate(514.623291015625,324.759765625)"/>
<path d="M0 0 C0.96523181 -0.00428418 1.93046362 -0.00856836 2.92494488 -0.01298237 C4.6021627 -0.02252088 6.27936555 -0.03619706 7.95650196 -0.05527782 C9.67776825 -0.06546648 11.39925362 -0.02735382 13.11978149 0.02407837 C13.44978149 0.35407837 13.77978149 0.68407837 14.11978149 1.02407837 C14.07232106 6.66000477 13.29517333 12.84868653 9.11978149 17.02407837 C6.52737769 17.12186379 3.96163453 17.15402598 1.36878967 17.14433289 C0.136317 17.14561452 0.136317 17.14561452 -1.12105411 17.14692205 C-3.89569631 17.14857937 -6.67027908 17.14305139 -9.44491577 17.13760376 C-11.42533364 17.13732192 -13.40575162 17.13747957 -15.38616943 17.13804626 C-20.78057535 17.13833435 -26.17495924 17.13243585 -31.56936002 17.12547231 C-37.2001543 17.11924059 -42.83094902 17.11863512 -48.46174622 17.1174469 C-59.13254876 17.11433304 -69.80334111 17.10611893 -80.47413915 17.09609741 C-92.61903269 17.08493795 -104.7639267 17.07942625 -116.90882409 17.07440197 C-141.89929455 17.06393636 -166.88975596 17.04633587 -191.88021851 17.02407837 C-190.9793681 10.14124294 -187.25483844 5.26026572 -181.88021851 1.02407837 C-176.28019512 -0.56421201 -170.89356756 -0.43111788 -165.11141968 -0.3164978 C-163.41840116 -0.32326686 -161.72539617 -0.33487304 -160.03244019 -0.35092163 C-155.45018515 -0.38072563 -150.8706998 -0.34310648 -146.28871322 -0.29318404 C-141.47070911 -0.25233745 -136.65298078 -0.27409691 -131.83488464 -0.28898621 C-122.6964627 -0.30778976 -113.55915776 -0.27075953 -104.42093021 -0.21351367 C-94.09698541 -0.15149602 -83.77334172 -0.15105856 -73.44924581 -0.15623891 C-55.66867003 -0.16396973 -37.88865752 -0.12648257 -20.108325 -0.03282452 C-13.40526711 0.00181787 -6.7031548 0.0326101 0 0 Z " fill="#FBDE05" transform="translate(295.8802185058594,442.9759216308594)"/>
<path d="M0 0 C1.92667511 -0.00412399 1.92667511 -0.00412399 3.89227295 -0.0083313 C5.31341646 -0.00125344 6.73455903 0.00601618 8.15570068 0.01345825 C9.65380852 0.01402246 11.1519169 0.01370561 12.65002441 0.01257324 C16.715822 0.01199912 20.78150173 0.02376313 24.84727192 0.03772116 C29.09670223 0.0502185 33.3461352 0.05139823 37.59558105 0.05377197 C45.64198169 0.05998967 53.68832802 0.07640441 61.73470473 0.09647095 C70.89543782 0.11882093 80.05617349 0.12982112 89.21692705 0.13986182 C108.06080687 0.16077038 126.90463613 0.195952 145.74847412 0.24050903 C146.07847412 1.23050903 146.40847412 2.22050903 146.74847412 3.24050903 C145.20159912 6.08816528 145.20159912 6.08816528 142.99847412 9.30300903 C142.28175537 10.3664856 141.56503662 11.42996216 140.82659912 12.52566528 C138.74847412 15.24050903 138.74847412 15.24050903 135.74847412 17.24050903 C132.97425556 17.48660469 132.97425556 17.48660469 129.54127502 17.48101807 C127.59141945 17.48514206 127.59141945 17.48514206 125.60217285 17.48934937 C124.15850738 17.48227103 122.71484284 17.47500141 121.2711792 17.46755981 C119.75351468 17.46699577 118.23584962 17.46731213 116.71818542 17.46844482 C112.59448001 17.46901961 108.47089051 17.457245 104.34721208 17.44329691 C100.03905207 17.43081047 95.73088954 17.4296207 91.42271423 17.42724609 C83.2629496 17.42102518 75.10323843 17.40460611 66.94349736 17.38454711 C57.65461566 17.36220712 48.36573142 17.35119947 39.07682955 17.34115624 C19.96734741 17.3202404 0.85791506 17.28505256 -18.25152588 17.24050903 C-18.25152588 12.51413263 -17.25431301 11.34282299 -14.50152588 7.61550903 C-13.80543213 6.65386841 -13.10933838 5.69222778 -12.39215088 4.70144653 C-8.63566601 0.38285991 -5.62361426 -0.00927989 0 0 Z " fill="#FBDE05" transform="translate(185.25152587890625,404.7594909667969)"/>
<path d="M0 0 C0.82704941 0.00202423 1.65409882 0.00404846 2.50621033 0.00613403 C3.37281784 0.00438171 4.23942535 0.00262939 5.1322937 0.00082397 C8.01150993 -0.00359568 10.89066529 -0.00065615 13.7698822 0.00271606 C15.76145947 0.00204306 17.75303666 0.00107306 19.74461365 -0.00018311 C23.92443115 -0.00166023 28.10422733 0.00049495 32.28404236 0.00515747 C37.65465747 0.01085476 43.0252226 0.00757584 48.39583588 0.00158501 C52.51005941 -0.00202021 56.62427099 -0.0008822 60.73849487 0.0017128 C62.71934007 0.00238218 64.70018633 0.00155326 66.68103027 -0.00076675 C69.44440096 -0.00329263 72.20768954 0.00054639 74.97105408 0.00613403 C75.79810349 0.0041098 76.62515289 0.00208557 77.4772644 0 C83.12436976 0.02126612 83.12436976 0.02126612 84.2386322 1.13552856 C84.1743231 3.28403736 84.03728056 5.43058325 83.8636322 7.57302856 C83.77339783 8.7473645 83.68316345 9.92170044 83.5901947 11.13162231 C83.2386322 14.13552856 83.2386322 14.13552856 82.2386322 16.13552856 C50.5586322 16.13552856 18.8786322 16.13552856 -13.7613678 16.13552856 C-12.86998996 11.67863935 -12.0751875 9.60098905 -9.7613678 5.88552856 C-9.2251178 5.01412231 -8.6888678 4.14271606 -8.1363678 3.24490356 C-5.74362761 -0.4257774 -4.34597518 0.01636627 0 0 Z " fill="#FBDE05" transform="translate(217.76136779785156,481.8644714355469)"/>
</svg>
