<?xml version="1.0" encoding="UTF-8"?>
<svg version="1.1" xmlns="http://www.w3.org/2000/svg" width="512" height="512">
<path d="M0 0 C1.23679504 0.00149048 2.47359009 0.00298096 3.74786377 0.0045166 C21.48024573 0.04298351 38.98684067 0.25464678 56.5 3.3125 C57.81339355 3.53728027 57.81339355 3.53728027 59.15332031 3.76660156 C81.58923638 7.77696834 100.94075574 17.43087443 114.48828125 36.15625 C121.81700327 47.65451679 123.80192069 59.05542027 123.7746582 72.42285156 C123.7823246 74.37078865 123.7823246 74.37078865 123.79014587 76.358078 C123.80347139 79.90171438 123.80412155 83.44524366 123.80158257 86.98890018 C123.80050801 89.95814636 123.80540883 92.92737129 123.810188 95.89661288 C123.82126189 102.90944447 123.82173319 109.9222225 123.81567383 116.93505859 C123.80964162 124.14231947 123.82193067 131.34938474 123.8432439 138.55661225 C123.86092784 144.76753798 123.86685042 150.97840185 123.86360615 157.1893518 C123.86180321 160.88855929 123.86432923 164.58762739 123.87832069 168.28681183 C123.89336828 172.4195246 123.88386991 176.55184623 123.87231445 180.68457031 C123.87995819 181.89120834 123.88760193 183.09784637 123.89547729 184.34104919 C123.78984626 201.5214487 117.81919525 217.74584063 105.91992188 230.27929688 C95.61533932 240.41518231 81.38302481 247.41269759 66.80534363 247.45053101 C65.10060883 247.45871101 65.10060883 247.45871101 63.36143494 247.46705627 C61.50452782 247.46861977 61.50452782 247.46861977 59.61010742 247.47021484 C57.59705765 247.47801473 55.5840079 247.48581863 53.57095873 247.49377275 C51.41015796 247.50147604 49.24936139 247.50686514 47.08855247 247.51173019 C42.56805465 247.52245624 38.04763048 247.54271733 33.5271759 247.56484985 C20.67318131 247.62660632 7.81919017 247.68061612 -5.03491211 247.71386719 C-12.13681952 247.73231859 -19.23860404 247.76139009 -26.3404209 247.8018719 C-30.09007942 247.82277819 -33.83958414 247.83837547 -37.58930397 247.84067917 C-65.84873653 247.69773538 -65.84873653 247.69773538 -92.5 256.3125 C-93.48484375 256.80492187 -94.4696875 257.29734375 -95.484375 257.8046875 C-113.05727372 267.31954717 -125.3763035 282.60581352 -131.56719971 301.58399963 C-134.23205555 310.84937649 -135.10358162 319.58048173 -135.109375 329.21484375 C-135.12440795 330.67315965 -135.14114549 332.13145887 -135.15948486 333.58973694 C-135.20259855 337.37235426 -135.2230306 341.15474235 -135.23822021 344.93756104 C-135.2579969 348.81983698 -135.29994127 352.70187237 -135.33984375 356.58398438 C-135.41453668 364.16009065 -135.46519314 371.73609409 -135.5 379.3125 C-142.47008481 379.41510389 -149.43997037 379.48446259 -156.41064453 379.53222656 C-158.77497637 379.55216787 -161.13926002 379.57933088 -163.50341797 379.61425781 C-185.5627926 379.93165889 -204.41293135 378.55204087 -221.34375 362.6640625 C-242.22884223 339.88720467 -248.45614653 306.11394908 -251.5 276.3125 C-251.66628906 274.74628906 -251.66628906 274.74628906 -251.8359375 273.1484375 C-255.52938458 232.91981119 -249.83315014 184.81767597 -223.5703125 152.97265625 C-210.44516205 138.74904901 -190.41229892 130.96990381 -171.33024788 130.04407692 C-166.76691848 129.91114776 -162.20547411 129.94021458 -157.64086914 129.97192383 C-155.90468867 129.97277232 -154.16850712 129.97229063 -152.43232727 129.97059631 C-147.7679781 129.9697436 -143.10386539 129.98725052 -138.43957067 130.00831819 C-133.54692012 130.02720723 -128.6542628 130.02884498 -123.76158142 130.03239441 C-114.51846182 130.04167923 -105.27545002 130.06624425 -96.03237766 130.09644288 C-85.50020191 130.13009848 -74.96802072 130.14650083 -64.43580449 130.16152918 C-42.79047477 130.19279739 -21.14524802 130.24609968 0.5 130.3125 C0.5 125.6925 0.5 121.0725 0.5 116.3125 C-39.76 116.3125 -80.02 116.3125 -121.5 116.3125 C-121.5 38.50489374 -121.5 38.50489374 -108.5 24.3125 C-94.97580554 11.6218046 -76.91915826 7.28746736 -59.1875 4.125 C-58.32471436 3.97015137 -57.46192871 3.81530273 -56.57299805 3.65576172 C-37.75491355 0.51228818 -19.04757989 -0.0566239 0 0 Z M-85.5 47.3125 C-90.31453376 53.55838163 -90.42703808 59.59036839 -89.5 67.3125 C-87.79954618 73.51060385 -83.82408417 77.83690243 -78.5 81.3125 C-72.47364487 84.22590348 -65.59109967 84.44929475 -59.15234375 82.66015625 C-53.34133886 80.05136215 -49.12092244 75.66536696 -46.359375 69.953125 C-44.40627648 63.95178591 -44.43255446 56.81651379 -47 51 C-50.06903076 45.76844934 -54.7388075 41.98374809 -59.875 38.875 C-70.32447818 36.63582611 -78.5663112 39.03059393 -85.5 47.3125 Z " fill="#3D79AA" transform="translate(254.5,-0.3125)"/>
<path d="M0 0 C7.61305236 -0.07656573 15.22600404 -0.128815 22.83935547 -0.16479492 C25.4250052 -0.17980712 28.01062978 -0.20022313 30.59619141 -0.22631836 C34.32981604 -0.26303545 38.06310166 -0.27980274 41.796875 -0.29296875 C42.93799744 -0.30845261 44.07911987 -0.32393646 45.25482178 -0.33988953 C60.53396424 -0.34303626 74.78563318 4.1127821 85.984375 14.828125 C107.8101168 38.34578476 114.03815024 76.34293175 117 107 C117.16435547 108.55654297 117.16435547 108.55654297 117.33203125 110.14453125 C121.01671521 149.98824718 113.30218425 198.5724254 87.875 230.68359375 C79.2816876 240.72404383 69.15796582 246.86319489 56 249 C53.36055478 249.08987224 50.74851299 249.13074813 48.10966492 249.12025452 C47.32135074 249.12110894 46.53303656 249.12196337 45.72083408 249.12284368 C43.08299051 249.12448899 40.44521074 249.11899265 37.80737305 249.11352539 C35.91503399 249.11324329 34.02269483 249.1134017 32.13035583 249.1139679 C26.9944425 249.11425497 21.85855248 249.10837272 16.72264457 249.10139394 C11.35479586 249.09514548 5.98694663 249.09455542 0.61909485 249.09336853 C-9.54512641 249.09025963 -19.70933693 249.08205216 -29.87355345 249.07201904 C-41.44539458 249.06084424 -53.01723623 249.055344 -64.58908141 249.05032361 C-88.3927271 249.03986919 -112.19636249 249.02207698 -136 249 C-136 253.95 -136 258.9 -136 264 C-95.74 264 -55.48 264 -14 264 C-14 333.15353261 -14 333.15353261 -30.2734375 350.48828125 C-54.27967063 372.60290575 -93.71758716 381.91012749 -125.43359375 382.23828125 C-126.22033478 382.2480751 -127.00707581 382.25786896 -127.81765747 382.26795959 C-166.79483932 382.65282185 -212.96118558 377.86896791 -242.67993164 349.58569336 C-252.55774984 339.68280058 -259.08291158 326.67746816 -259.14717102 312.53312683 C-259.15432632 311.44712189 -259.16148163 310.36111694 -259.16885376 309.24220276 C-259.17154266 308.06036911 -259.17423157 306.87853546 -259.17700195 305.66088867 C-259.18357315 304.40814148 -259.19014435 303.15539429 -259.19691467 301.86468506 C-259.21663386 297.71577716 -259.22831833 293.56690793 -259.23828125 289.41796875 C-259.24233245 287.98290806 -259.24644948 286.54784756 -259.25063133 285.11278725 C-259.26967777 278.36168848 -259.28390429 271.61060054 -259.2922433 264.85948008 C-259.30198362 257.10442116 -259.32822088 249.3496501 -259.36874419 241.59469241 C-259.39908667 235.57825317 -259.41372959 229.56189552 -259.41702431 223.54538137 C-259.4193562 219.9632975 -259.42806816 216.38152123 -259.45348549 212.79952049 C-259.61371651 188.96309157 -258.47667279 168.35358673 -241.25952148 150.11206055 C-229.07621149 137.78783116 -214.56871645 131.82382915 -197.35264587 131.72102356 C-196.12751785 131.72357651 -194.90238983 131.72612946 -193.64013672 131.72875977 C-191.62383679 131.72073615 -189.60753687 131.71271015 -187.59123731 131.70459449 C-185.43916978 131.69777044 -183.28714474 131.69574146 -181.13506699 131.69503975 C-176.62709657 131.69308443 -172.11927689 131.67494981 -167.61135864 131.65428162 C-156.41207025 131.60528438 -145.21274107 131.57429612 -134.0133667 131.55297852 C-125.30977516 131.53638465 -116.60631393 131.51336849 -107.90280926 131.46995777 C-103.43694398 131.44838164 -98.97132748 131.44010464 -94.50541377 131.44235051 C-91.70652837 131.44066361 -88.90780045 131.42649331 -86.10897255 131.40913773 C-84.22617351 131.40102244 -82.34332864 131.40740026 -80.46052551 131.414505 C-58.07304221 131.22836282 -38.72719472 123.79251777 -22.30859375 108.3984375 C-6.68880558 92.17077263 -0.40387686 72.13543226 -0.390625 50.09765625 C-0.37559205 48.63934035 -0.35885451 47.18104113 -0.34051514 45.72276306 C-0.29740145 41.94014574 -0.2769694 38.15775765 -0.26177979 34.37493896 C-0.2420031 30.49266302 -0.20005873 26.61062763 -0.16015625 22.72851562 C-0.08546332 15.15240935 -0.03480686 7.57640591 0 0 Z M-85.6953125 304.07421875 C-89.70054018 310.26515639 -90.73275415 315.68307809 -90 323 C-87.91809625 331.18174915 -82.69034371 336.16110776 -75.625 340.4375 C-68.08388603 342.05345299 -62.04650445 341.39145059 -55.265625 337.6171875 C-50.46494336 334.19049405 -47.8455518 329.98520858 -45.5625 324.625 C-44.40220373 317.14753517 -45.14936697 311.02143617 -49.54296875 304.75390625 C-53.66928908 299.78683432 -58.27332505 296.54819547 -64.76171875 295.59375 C-73.3567022 295.31834332 -80.0837557 297.20846608 -85.6953125 304.07421875 Z " fill="#FFDE57" transform="translate(392,130)"/>
</svg>
