<?xml version="1.0" encoding="UTF-8"?>
<svg version="1.1" xmlns="http://www.w3.org/2000/svg" width="48" height="48">
<path d="M0 0 C0.99 0 1.98 0 3 0 C7.97492857 7.74642857 7.97492857 7.74642857 8.0625 12.125 C6.73353858 15.72101326 5.02075994 18.74070977 3 22 C-2.28 22 -7.56 22 -13 22 C-18 13.25 -18 13.25 -18 11 C-13.71 11 -9.42 11 -5 11 C-4.34 9.35 -3.68 7.7 -3 6 C-2.01517978 3.99248185 -1.01847486 1.99065541 0 0 Z " fill="#6B17FF" transform="translate(30,22)"/>
<path d="M0 0 C5.28 0 10.56 0 16 0 C21 8.75 21 8.75 21 11 C16.71 11 12.42 11 8 11 C7.34 12.98 6.68 14.96 6 17 C4.5625 19.875 4.5625 19.875 3 22 C2.01 22 1.02 22 0 22 C-4.97492857 14.25357143 -4.97492857 14.25357143 -5.0625 9.875 C-3.73353858 6.27898674 -2.02075994 3.25929023 0 0 Z " fill="#6B17FF" transform="translate(17,4)"/>
<path d="M0 0 C4.62 0 9.24 0 14 0 C19 8.75 19 8.75 19 11 C14.55107416 11.53466319 10.42642026 11.79287006 6 11 C3.07141276 8.425132 1.42731456 5.61064962 0 2 C0 1.34 0 0.68 0 0 Z " fill="#A548FF" transform="translate(19,4)"/>
<path d="M0 0 C4.44892584 -0.53466319 8.57357974 -0.79287006 13 0 C15.92858724 2.574868 17.57268544 5.38935038 19 9 C19 9.66 19 10.32 19 11 C14.38 11 9.76 11 5 11 C0 2.25 0 2.25 0 0 Z " fill="#A449FF" transform="translate(12,33)"/>
<path d="M0 0 C4.29 0 8.58 0 13 0 C10.52631579 7.42105263 10.52631579 7.42105263 8 11 C7.34 11 6.68 11 6 11 C4.02 7.37 2.04 3.74 0 0 Z " fill="#2100C6" transform="translate(25,33)"/>
<path d="M0 0 C0.66 0 1.32 0 2 0 C3.98 3.63 5.96 7.26 8 11 C3.71 11 -0.58 11 -5 11 C-3.47903372 7.19758429 -1.85989732 3.63525385 0 0 Z " fill="#2100C5" transform="translate(17,4)"/>
<path d="M0 0 C4.42679007 1.47559669 4.91432696 3.90057368 7 8 C7 8.66 7 9.32 7 10 C3.04 10 -0.92 10 -5 10 C-3.51799926 6.29499816 -2.091496 3.32738 0 0 Z " fill="#6B19FE" transform="translate(24,34)"/>
<path d="M0 0 C3.96 0 7.92 0 12 0 C10.51799926 3.70500184 9.091496 6.67262 7 10 C2.57320993 8.52440331 2.08567304 6.09942632 0 2 C0 1.34 0 0.68 0 0 Z " fill="#6B19FD" transform="translate(19,4)"/>
</svg>
